<?xml version="1.0" encoding="UTF-8" standalone="no"?>
<svg
   width="23.630859"
   height="19"
   version="1.1"
   id="svg1"
   xml:space="preserve"
   xmlns="http://www.w3.org/2000/svg"
   xmlns:svg="http://www.w3.org/2000/svg"><defs
     id="defs1" /><path
     d="m 5.6887654,2.1443398 c 2.47993,1.661901 5.1473896,5.031539 6.1267296,6.839892 0.97943,-1.808222 3.64673,-5.17803 6.12674,-6.839892 1.78939,-1.19917096 4.68863,-2.12701096 4.68863,0.825428 0,0.589646 -0.37871,4.953329 -0.60084,5.661753 -0.77209,2.4629782 -3.58561,3.0911722 -6.08831,2.7109562 4.37462,0.66461 5.48749,2.866055 3.08414,5.0675 -4.56448,4.180985 -6.56046,-1.049016 -7.07214,-2.389127 -0.0938,-0.245675 -0.13771,-0.360602 -0.13827,-0.262873 -6.5e-4,-0.09778 -0.0444,0.01699 -0.13827,0.262873 -0.51145,1.340111 -2.5073996,6.570243 -7.0721296,2.389127 -2.4034,-2.201445 -1.29057,-4.403022 3.08414,-5.0675 -2.50277,0.380216 -5.31633,-0.247978 -6.08832,-2.7109562 -0.22212,-0.7085 -0.60085,-5.072162 -0.60085,-5.661753 0,-2.95243896 2.89933,-2.02459896 4.68864,-0.825428 z"
     fill="#1185fe"
     id="path1"
     style="fill:none;stroke:#17b6ff;stroke-width:2;stroke-linecap:butt;stroke-linejoin:round;stroke-dasharray:none;stroke-opacity:1" /></svg>
