<?xml version="1.0" encoding="UTF-8" standalone="no"?>
<!-- Created with Inkscape (http://www.inkscape.org/) -->

<svg
   width="3.6177139mm"
   height="4.7625008mm"
   viewBox="0 0 3.6177139 4.7625008"
   version="1.1"
   id="svg5"
   xml:space="preserve"
   xmlns="http://www.w3.org/2000/svg"
   xmlns:svg="http://www.w3.org/2000/svg"><defs
     id="defs2" /><g
     id="layer2"
     style="display:inline"
     transform="translate(-70.029707,-28.049996)"><path
       id="path1140"
       style="color:#000000;fill:#17b6ff;fill-opacity:1;stroke-width:1;stroke-linecap:round;stroke-linejoin:round;-inkscape-stroke:none"
       d="M 71.838463,28.049998 A 0.2678088,0.2678088 0 0 0 71.5717,28.318853 v 2.663441 l -1.115172,-0.817026 a 0.2678088,0.2678088 0 0 0 -0.199811,-0.04969 0.2678088,0.2678088 0 0 0 -0.173656,0.107227 0.2678088,0.2678088 0 0 0 0.05702,0.373468 l 1.53833,1.128772 a 0.2678088,0.2678088 0 0 0 0.02353,0.01359 0.2678088,0.2678088 0 0 0 0.034,0.01726 0.2678088,0.2678088 0 0 0 0.0048,0.0016 0.2678088,0.2678088 0 0 0 0.0031,0.0015 0.2678088,0.2678088 0 0 0 0.0136,0.0048 0.2678088,0.2678088 0 0 0 0.0272,0.0068 0.2678088,0.2678088 0 0 0 5.24e-4,0 0.2678088,0.2678088 0 0 0 10e-4,5.24e-4 0.2678088,0.2678088 0 0 0 5.23e-4,0 0.2678088,0.2678088 0 0 0 0.034,0.0048 0.2678088,0.2678088 0 0 0 0.0079,5.22e-4 0.2678088,0.2678088 0 0 0 0.04812,-0.0026 0.2678088,0.2678088 0 0 0 5.23e-4,0 0.2678088,0.2678088 0 0 0 0.001,0 0.2678088,0.2678088 0 0 0 0.122397,-0.04865 l 1.537807,-1.128772 a 0.2678088,0.2678088 0 0 0 0.05753,-0.373468 0.2678088,0.2678088 0 0 0 -0.373468,-0.05753 l -1.115154,0.815364 v -2.661932 a 0.2678088,0.2678088 0 0 0 -0.26888,-0.268855 z m -1.5399,4.226356 a 0.2678088,0.2678088 0 0 0 -0.268855,0.267286 0.2678088,0.2678088 0 0 0 0.268855,0.268854 h 3.081891 a 0.2678088,0.2678088 0 0 0 0.266763,-0.268854 0.2678088,0.2678088 0 0 0 -0.266763,-0.267286 z" /></g></svg>
