<?xml version="1.0" encoding="UTF-8" standalone="no"?>
<!-- Created with Inkscape (http://www.inkscape.org/) -->

<svg
   width="5.4760895mm"
   height="4.7624989mm"
   viewBox="0 0 5.4760895 4.7624989"
   version="1.1"
   id="svg5"
   xml:space="preserve"
   xmlns="http://www.w3.org/2000/svg"
   xmlns:svg="http://www.w3.org/2000/svg"><defs
     id="defs2" /><g
     id="layer2"
     style="display:inline"
     transform="translate(-61.680991,-28.117663)"><path
       id="path6412-0-8"
       style="color:#000000;opacity:1;fill:#17b6ff;fill-opacity:1;stroke-width:0.172647;stroke-linecap:round;-inkscape-stroke:none"
       d="m 63.624678,28.117663 c -0.494882,0 -0.908763,0.347614 -1.031444,0.8056 h -0.644058 c -0.148387,2.8e-5 -0.268347,0.120316 -0.268185,0.268708 3.1e-5,0.148257 0.11993,0.268157 0.268185,0.268185 h 0.643532 c 0.12262,0.45807 0.537017,0.805599 1.03197,0.805599 0.494953,0 0.916137,-0.347527 1.038758,-0.805599 h 2.225457 c 0.148256,-3.4e-5 0.268155,-0.119932 0.268185,-0.268185 1.62e-4,-0.148388 -0.119798,-0.268674 -0.268185,-0.268708 H 64.66291 c -0.122671,-0.457987 -0.54335,-0.8056 -1.038232,-0.8056 z m 0,0.536893 c 0.299657,0 0.537229,0.237274 0.537411,0.536892 v 5.23e-4 c -1.72e-4,0.299599 -0.237764,0.536891 -0.537411,0.536891 -0.299778,0 -0.536896,-0.237123 -0.536896,-0.536891 0,-0.299785 0.237108,-0.537415 0.536896,-0.537415 z m 1.588714,2.077516 c -0.494883,0 -0.915561,0.347091 -1.038232,0.805078 h -2.225984 c -0.148387,3e-5 -0.268347,0.120321 -0.268185,0.268707 3.1e-5,0.148256 0.11993,0.268678 0.268185,0.268708 h 2.225458 c 0.12262,0.458081 0.543805,0.805598 1.038758,0.805598 0.494953,0 0.909349,-0.347527 1.031969,-0.805598 h 0.643532 c 0.148256,-3e-5 0.268155,-0.120442 0.268185,-0.268708 1.62e-4,-0.148386 -0.119798,-0.268687 -0.268185,-0.268707 h -0.644058 c -0.122681,-0.457987 -0.536561,-0.805078 -1.031443,-0.805078 z m 0,0.536893 c 0.299788,0 0.536895,0.237627 0.536895,0.537415 0,0.299768 -0.237117,0.536888 -0.536895,0.536888 -0.299647,0 -0.536714,-0.237292 -0.536886,-0.536888 v -5.23e-4 c 1.82e-4,-0.299616 0.237229,-0.536892 0.536886,-0.536892 z" /></g></svg>
