<?xml version="1.0" encoding="UTF-8" standalone="no"?>
<!-- Created with Inkscape (http://www.inkscape.org/) -->

<svg
   width="4.7969208mm"
   height="5.2916651mm"
   viewBox="0 0 4.7969208 5.2916651"
   version="1.1"
   id="svg5"
   xml:space="preserve"
   xmlns:inkscape="http://www.inkscape.org/namespaces/inkscape"
   xmlns:sodipodi="http://sodipodi.sourceforge.net/DTD/sodipodi-0.dtd"
   xmlns="http://www.w3.org/2000/svg"
   xmlns:svg="http://www.w3.org/2000/svg"><sodipodi:namedview
     id="namedview7"
     pagecolor="#ffffff"
     bordercolor="#000000"
     borderopacity="0.25"
     inkscape:showpageshadow="2"
     inkscape:pageopacity="0.0"
     inkscape:pagecheckerboard="0"
     inkscape:deskcolor="#d1d1d1"
     inkscape:document-units="mm"
     showgrid="false" /><defs
     id="defs2" /><path
     style="color:#000000;fill:#17b6ff;fill-opacity:1;stroke-width:0.999993;stroke-linecap:round;stroke-linejoin:round"
     d="m 0.73951535,0.03532836 c -0.09469,0.05123 -0.153718,0.150189 -0.153839,0.257846 V 1.2118804 c -0.02387,0.04984 -0.06775,0.134016 -0.130005,0.312013 -0.07782,0.222497 -0.159971,0.500778 -0.138673,0.793035 0.02121,0.291083 0.145763,0.54959 0.288177,0.762699 0.142415,0.213111 0.284445,0.377154 0.47235505,0.478854 0.112531,0.06093 0.215738,0.05682 0.322847,0.07367 -0.02173,0.07085 -0.01959,0.09636 -0.02166,0.134338 -0.0023,0.04355 -0.0036,0.09336 -0.0044,0.149508 -0.0015,0.112278 -0.0018,0.250841 -0.0022,0.387848 -3.43e-4,0.13701 -6.1e-5,0.273372 -0.0044,0.377018 -7.4e-5,0.0018 7.6e-5,0.0026 0,0.0044 -0.02077,3.55e-4 -0.0096,0.01298 -0.04766,0 0.02371,0.0082 -0.09444,-0.08543 -0.192842,-0.221009 -0.04921,-0.06779 -0.09833,-0.141667 -0.15384005,-0.212344 -0.0555,-0.07068 -0.108245,-0.140208 -0.221009,-0.203674 -0.225694,-0.127034 -0.444186,-0.138673 -0.444186,-0.138673 -0.161427,-0.008 -0.298971,0.115954 -0.30768099836,0.277345 -0.009400002,0.162253 0.11506199836,0.301155 0.27734599836,0.309847 0,0 0.08131,0.0037 0.186341,0.06284 -0.03009,-0.01694 0.0093,0.0075 0.04767,0.05634 0.03843,0.04894 0.08624,0.119793 0.140838,0.195009 0.109195,0.150432 0.216281,0.339507 0.47885505,0.429018 0.241371,0.06924 0.484573,0.05947 0.676029,-0.08232 0.03713,-0.02867 0.06687,-0.06582 0.08668,-0.108346 7.43e-4,-7.35e-4 0.0015,-0.0015 0.0022,-0.0022 0.0059,-0.0169 0.01028,-0.0343 0.01301,-0.052 0.01488,-0.04637 0.02848,-0.09 0.0325,-0.125672 0.0057,-0.05039 0.0084,-0.104838 0.01084,-0.164673 0.0049,-0.119668 0.0061,-0.261591 0.0066,-0.400852 3.49e-4,-0.139261 8.09e-4,-0.275003 0.0022,-0.379183 5.62e-4,-0.04311 9.83e-4,-0.07609 0.0022,-0.10401 0.01953,-0.01988 0.04515,-0.04463 0.07368,-0.06933 0.06394,-0.05543 0.125672,-0.101843 0.125672,-0.101843 0.225218,-0.168306 0.10781,-0.526406 -0.173342,-0.52869 0,0 -0.132293,-0.0013 -0.286011,-0.01516 -0.15372,-0.01389 -0.344234,-0.06368 -0.346682,-0.06501 -0.01476,-0.008 -0.161209,-0.131679 -0.264345,-0.286013 -0.10313905,-0.154334 -0.18071505,-0.34217 -0.19067505,-0.478855 -0.0099,-0.135519 0.04325,-0.37294 0.10834505,-0.559024 0.06509,-0.186082 0.132172,-0.320679 0.132172,-0.320679 0.01995,-0.04042 0.03035,-0.08492 0.03033,-0.130006 V 0.83491036 l 0.309848,0.20367504 c 0.0644,0.04268 0.143032,0.05826 0.21884,0.04333 0,0 0.655799,-0.12300104 0.89704,-0.12133804 0.210473,0.0015 0.806036,0.11917104 0.806036,0.11917104 0.07689,0.01676 0.157311,0.0019 0.223176,-0.04116 L 3.9355714,0.83708036 V 1.2660994 c 6.66e-4,0.04526 0.01179,0.08975 0.03251,0.130006 0,0 0.06709,0.134598 0.132173,0.320679 0.06509,0.186083 0.116047,0.423513 0.106167,0.559024 -0.0099,0.136694 -0.08754,0.324524 -0.190674,0.478855 -0.103139,0.154331 -0.249543,0.278001 -0.264344,0.286013 -0.0048,0.0019 -0.193874,0.05118 -0.346682,0.065 -0.153733,0.0139 -0.283847,0.01516 -0.283847,0.01516 -0.28224,2.24e-4 -0.401581,0.359724 -0.175507,0.52869 0,0 0.06389,0.04641 0.12784,0.101843 0.02808,0.02435 0.052,0.04956 0.0715,0.06933 0.0012,0.02791 0.0038,0.06087 0.0044,0.10401 0.0013,0.104179 -3.21e-4,0.239902 0,0.379183 3.22e-4,0.139281 0.0016,0.281115 0.0066,0.400852 0.0025,0.05987 0.0073,0.114188 0.01299,0.164673 0.0058,0.05049 -0.0026,0.08306 0.04551,0.179841 0.06983,0.140667 0.232581,0.229945 0.342347,0.24051 0.109765,0.0105 0.197176,-0.026 0.197176,-0.026 0.151389,-0.05803 0.227061,-0.227805 0.169007,-0.379184 -0.05803,-0.151389 -0.227804,-0.227061 -0.379183,-0.169008 0,0 0.03104,-0.01452 0.06933,-0.01084 0.03831,0.0037 0.113007,0.05683 0.125671,0.08234 0.03372,0.06799 0.01605,0.04195 0.013,0.01516 -0.003,-0.02678 -0.0066,-0.06954 -0.0087,-0.121338 -0.0044,-0.103575 -0.0063,-0.240027 -0.0066,-0.377017 -3.15e-4,-0.136989 0.0015,-0.275574 0,-0.38785 -7.13e-4,-0.05613 -0.002,-0.105944 -0.0044,-0.149506 -0.0021,-0.038 8.5e-5,-0.06343 -0.02166,-0.134339 0.106815,-0.01689 0.208501,-0.013 0.320681,-0.07368 0.187871,-0.101709 0.332107,-0.265746 0.47452,-0.478854 0.142414,-0.213107 0.266968,-0.471615 0.28818,-0.7627 0.0213,-0.292252 -0.06301,-0.57054 -0.140839,-0.793034 -0.06312,-0.180457 -0.107005,-0.268421 -0.130006,-0.316347 V 0.29329436 c -0.0012,-0.231967 -0.258369,-0.370915 -0.453089,-0.244845 l -0.673864,0.439853 c -0.122535,-0.02737 -0.474254,-0.112629 -0.793033,-0.114838 -0.351917,-0.0025 -0.764474,0.08897 -0.888373,0.114838 l -0.673776,-0.439915 c -0.0903201,-0.05948 -0.20605905,-0.06449 -0.30118005,-0.013 z"
     id="path1193-6" /></svg>
