<?xml version="1.0" encoding="UTF-8" standalone="no"?>
<!-- Created with Inkscape (http://www.inkscape.org/) -->

<svg
   width="5.86166mm"
   height="4.7640514mm"
   viewBox="0 0 5.86166 4.7640514"
   version="1.1"
   id="svg5"
   xml:space="preserve"
   xmlns="http://www.w3.org/2000/svg"
   xmlns:svg="http://www.w3.org/2000/svg"><defs
     id="defs2" /><g
     id="layer2"
     style="display:inline"
     transform="translate(-34.869891,-28.64376)"><path
       id="path1670"
       style="color:#000000;fill:#17b6ff;fill-opacity:1;stroke-linecap:round;stroke-linejoin:round;-inkscape-stroke:none"
       d="m 35.663127,28.64376 c -0.435161,0 -0.793234,0.36014 -0.793234,0.7953 v 3.17345 c 0,0.43516 0.358073,0.7953 0.793234,0.7953 h 4.275191 c 0.435159,0 0.793233,-0.36014 0.793233,-0.7953 v -3.17345 c 0,-0.43516 -0.358074,-0.7953 -0.793233,-0.7953 z m 0,0.529683 h 4.275191 c 0.115137,0 0.207814,0.06639 0.245463,0.164848 a 0.2645835,0.2645835 0 0 0 -0.04599,0.02842 L 37.799947,31.148 35.463656,29.366713 a 0.2645835,0.2645835 0 0 0 -0.04599,-0.02842 c 0.03765,-0.09846 0.130325,-0.164848 0.245463,-0.164848 z m -0.26355,0.80977 2.240173,1.709456 a 0.26460996,0.26460996 0 0 0 0.321944,0 l 2.240174,-1.709456 v 2.629297 c 0,0.151156 -0.112395,0.265617 -0.26355,0.265617 h -4.275191 c -0.151155,0 -0.26355,-0.114461 -0.26355,-0.265617 z" /></g></svg>
