<?xml version="1.0" encoding="UTF-8" standalone="no"?>
<!-- Created with Inkscape (http://www.inkscape.org/) -->

<svg
   width="4.7382765mm"
   height="4.6669555mm"
   viewBox="0 0 4.7382765 4.6669555"
   version="1.1"
   id="svg1"
   xml:space="preserve"
   xmlns:inkscape="http://www.inkscape.org/namespaces/inkscape"
   xmlns:sodipodi="http://sodipodi.sourceforge.net/DTD/sodipodi-0.dtd"
   xmlns="http://www.w3.org/2000/svg"
   xmlns:svg="http://www.w3.org/2000/svg"><sodipodi:namedview
     id="namedview1"
     pagecolor="#ffffff"
     bordercolor="#000000"
     borderopacity="0.25"
     inkscape:showpageshadow="2"
     inkscape:pageopacity="0.0"
     inkscape:pagecheckerboard="0"
     inkscape:deskcolor="#1e1e1e"
     inkscape:document-units="px"
     showguides="true" /><defs
     id="defs1" /><g
     inkscape:label="Layer 1"
     inkscape:groupmode="layer"
     id="layer1"
     transform="translate(-456.91414,-119.71353)"><path
       id="path1"
       style="color:#000000;fill:#646e78;fill-opacity:1;stroke:#646e78;stroke-width:0.132292;stroke-linejoin:bevel;stroke-dasharray:none;stroke-opacity:1"
       d="m 458.8613,119.77967 c -1.03566,0 -1.88102,0.84537 -1.88102,1.88103 0,1.03565 0.84536,1.88102 1.88102,1.88102 0.44098,0 0.84703,-0.15386 1.1684,-0.4098 l 1.10485,1.10485 a 0.2645835,0.2645835 0 0 0 0.37517,0 0.2645835,0.2645835 0 0 0 0,-0.37311 l -1.1157,-1.11569 c 0.21886,-0.30738 0.3483,-0.68277 0.3483,-1.08727 0,-1.03566 -0.84537,-1.88103 -1.88102,-1.88103 z m 0,0.52969 c 0.74967,0 1.35134,0.60166 1.35134,1.35134 0,0.74967 -0.60167,1.35185 -1.35134,1.35185 -0.74967,0 -1.35134,-0.60218 -1.35134,-1.35185 0,-0.74968 0.60167,-1.35134 1.35134,-1.35134 z" /></g></svg>
