<?xml version="1.0" encoding="UTF-8" standalone="no"?>
<!-- Created with Inkscape (http://www.inkscape.org/) -->

<svg
   width="4.6028824mm"
   height="4.7624989mm"
   viewBox="0 0 4.6028824 4.7624989"
   version="1.1"
   id="svg5"
   xml:space="preserve"
   xmlns="http://www.w3.org/2000/svg"
   xmlns:svg="http://www.w3.org/2000/svg"><defs
     id="defs2" /><g
     id="layer2"
     style="display:inline"
     transform="translate(-54.408759,-27.942698)"><path
       id="path15000-6"
       style="color:#000000;fill:#17b6ff;fill-opacity:1;stroke-width:1;stroke-linecap:round;stroke-linejoin:round"
       d="m 54.712457,27.942701 c -0.156453,-6.08e-4 -0.283444,0.126379 -0.282826,0.282834 6.07e-4,0.155594 0.127235,0.281238 0.282826,0.280633 2.060243,0 3.73517,1.735575 3.73517,3.897496 -6.07e-4,0.155814 0.125372,0.282528 0.281187,0.282826 0.156453,6.07e-4 0.283433,-0.126373 0.282826,-0.282826 1.1e-5,-2.454616 -1.922125,-4.460963 -4.299183,-4.460963 z m 0.124563,1.680344 c -0.156454,-6.08e-4 -0.283444,0.126379 -0.282826,0.282834 6.06e-4,0.155594 0.127235,0.281238 0.282826,0.280633 1.09146,-7e-6 1.982042,0.92705 1.982042,2.092632 -6.07e-4,0.156453 0.126383,0.283444 0.282837,0.282826 0.155591,-6.17e-4 0.281229,-0.127235 0.280622,-0.282826 0,-1.456193 -1.134947,-2.656108 -2.545501,-2.656099 z m 0.23443,1.754932 c -0.363571,0 -0.662689,0.300919 -0.662689,0.664528 0,0.363608 0.299118,0.662704 0.662689,0.662694 0.363572,0 0.664532,-0.299086 0.664532,-0.662694 0,-0.3636 -0.30096,-0.664519 -0.664532,-0.664528 z" /></g></svg>
