<?xml version="1.0" encoding="UTF-8" standalone="no"?>
<!-- Created with Inkscape (http://www.inkscape.org/) -->

<svg
   width="4.7645264mm"
   height="4.7624512mm"
   viewBox="0 0 4.7645264 4.7624512"
   version="1.1"
   id="svg5"
   xml:space="preserve"
   xmlns="http://www.w3.org/2000/svg"
   xmlns:svg="http://www.w3.org/2000/svg"><defs
     id="defs2" /><g
     id="layer2"
     style="display:inline"
     transform="translate(-85.24394,-28.83545)"><path
       id="ellipse635"
       style="fill:#17b6ff;fill-opacity:1;stroke:none;stroke-width:0.529167;stroke-linecap:round;stroke-linejoin:round;stroke-miterlimit:4;stroke-dasharray:none;stroke-opacity:1"
       d="m 87.776038,28.835449 a 0.26460945,0.26460945 0 0 0 -0.187586,0.07803 l -2.267562,2.267562 a 0.26460945,0.26460945 0 0 0 0,0.373104 l 1.966805,1.966805 a 0.26460945,0.26460945 0 0 0 0.373104,0 l 2.269112,-2.263428 a 0.26460945,0.26460945 0 0 0 0.07855,-0.189652 l -0.0098,-1.90221 a 0.26460945,0.26460945 0 0 0 0,-5.17e-4 0.26460945,0.26460945 0 0 0 0,-5.16e-4 0.26460945,0.26460945 0 0 0 0,-5.17e-4 0.26460945,0.26460945 0 0 0 0,-5.17e-4 c -9.4e-4,-0.174254 -0.146139,-0.319454 -0.320394,-0.320394 z m 0.109037,0.529166 1.583883,0.0078 0.0078,1.588017 -2.001945,1.999877 -1.593701,-1.593701 z m 0.610299,0.469222 a 0.49278858,0.49171406 0 0 0 -0.492994,0.49196 0.49278858,0.49171406 0 0 0 0.492994,0.491443 0.49278858,0.49171406 0 0 0 0.492476,-0.491443 0.49278858,0.49171406 0 0 0 -0.492476,-0.49196 z" /></g></svg>
