<?xml version="1.0" encoding="UTF-8" standalone="no"?>
<!-- Created with Inkscape (http://www.inkscape.org/) -->

<svg
   width="6.0672188mm"
   height="5.0271225mm"
   viewBox="0 0 6.0672188 5.0271225"
   version="1.1"
   id="svg5"
   xml:space="preserve"
   xmlns:inkscape="http://www.inkscape.org/namespaces/inkscape"
   xmlns:sodipodi="http://sodipodi.sourceforge.net/DTD/sodipodi-0.dtd"
   xmlns="http://www.w3.org/2000/svg"
   xmlns:svg="http://www.w3.org/2000/svg"><sodipodi:namedview
     id="namedview7"
     pagecolor="#ffffff"
     bordercolor="#000000"
     borderopacity="0.25"
     inkscape:showpageshadow="2"
     inkscape:pageopacity="0.0"
     inkscape:pagecheckerboard="0"
     inkscape:deskcolor="#d1d1d1"
     inkscape:document-units="mm"
     showgrid="false" /><defs
     id="defs2" /><path
     style="color:#000000;opacity:1;fill:#17b6ff;stroke-width:1;stroke-linecap:round;stroke-linejoin:round;-inkscape-stroke:none;paint-order:markers fill stroke"
     d="m 4.0938346,1.4759247e-4 c -0.714273,0 -1.375548,0.58105699753 -1.402422,1.35518900753 -0.730425,-0.114535 -1.36378,-0.49896801 -1.81071504,-1.04603601 -0.123636,-0.150781 -0.35982,-0.131623 -0.457546,0.03715 -0.12074,0.207887 -0.191675,0.45034 -0.191675,0.70692801 0,0.230442 0.05495,0.402619 0.120659,0.564748 -0.05167,0.03472 -0.110113,0.0816 -0.128904,0.232869 v 0.01446 c 0,0.395854 0.16826,0.755428 0.425686,1.008754 -0.02747,0.06206 -0.03522,0.120245 -0.01555,0.201067 0.09125,0.284147 0.315343,0.608995 0.61762004,0.779219 -0.22938,0.08529 -0.47686404,0.123508 -0.70006204,0.123508 -0.07913,0 -0.159104,-0.0053 -0.239077,-0.01446 -0.294601,-0.03378 -0.43176,0.354339 -0.181369,0.513195 0.716485,0.431889 1.31105204,0.543416 1.88166104,0.550383 1.116152,0 2.005336,-0.469899 2.596894,-1.139745 0.482618,-0.541526 0.880149,-1.324367 0.899834,-2.367773 0.247478,-0.197119 0.370997,-0.342792 0.524332,-0.58153101 0.001,-0.0021 0.0031,-0.0042 0.0042,-0.0064 h -0.0021 c 0.02639,-0.05215 0.04001,-0.08708 0.02681,-0.169 -0.0209,-0.116993 -0.07864,-0.199694 -0.195968,-0.21844 0.01499,-0.036 0.02322,-0.05953 0.03525,-0.0969 0.07853,-0.244586 -0.187018,-0.456472 -0.408087,-0.32564 -0.180727,0.10703 -0.267797,0.145441 -0.489942,0.210492 -0.236037,-0.176557 -0.475103,-0.336406 -0.909483,-0.332098997528 z m 0,0.55854199753 c 0.246487,0 0.465022,0.103019 0.620364,0.267924 0.06016,0.05679 0.142475,0.08402 0.224647,0.0742 -0.02311,0.10657701 0.01795,0.21684701 0.10513,0.28236401 -0.06534,0.0552 -0.101753,0.137164 -0.0989,0.222588 0.0021,0.04422 0.0021,0.09004 0.0021,0.133967 0,0.674153 -0.260229,1.414688 -0.756398,1.976522 -0.49615,0.561835 -1.216228,0.952189 -2.178495,0.952189 -0.251763,0 -0.375753,-0.019 -0.633577,-0.06512 0.268711,-0.0932 0.527624,-0.237293 0.746934,-0.408858 0.210632,-0.161442 0.09843,-0.498048 -0.166944,-0.500824 -0.346479,-0.01974 -0.429222,-0.126737 -0.563247,-0.226305 0.458581,-0.09331 0.308556,-0.548471 0.0686,-0.569254 -0.235227,-0.04444 -0.430094,-0.172653 -0.58633904,-0.427594 0.48534704,0.06766 0.49555904,-0.406936 0.29161904,-0.510166 -0.22784604,-0.152049 -0.37459304,-0.421144 -0.37459304,-0.717377 0.71343804,0.632808 1.43504104,0.852969 2.18417404,0.900805 0.184464,0.0095 0.326959,-0.159858 0.28648,-0.340068 -0.01446,-0.06344 -0.02269,-0.129333 -0.02269,-0.195799 0,-0.47197801 0.37812,-0.84913801 0.851206,-0.84913801 z"
     id="path8694-5"
     sodipodi:nodetypes="ccccsccscccsccccccccccccccccccccsssccccccccccscc"
     inkscape:export-filename="twitter.svg"
     inkscape:export-xdpi="96"
     inkscape:export-ydpi="96" /></svg>
