<?xml version="1.0" encoding="UTF-8" standalone="no"?>
<!-- Created with Inkscape (http://www.inkscape.org/) -->

<svg
   width="47.368446mm"
   height="9.6311932mm"
   viewBox="0 0 47.368447 9.6311934"
   version="1.1"
   id="svg1"
   xml:space="preserve"
   sodipodi:docname="404.svg"
   inkscape:version="1.3 (0e150ed6c4, 2023-07-21)"
   xmlns:inkscape="http://www.inkscape.org/namespaces/inkscape"
   xmlns:sodipodi="http://sodipodi.sourceforge.net/DTD/sodipodi-0.dtd"
   xmlns="http://www.w3.org/2000/svg"
   xmlns:svg="http://www.w3.org/2000/svg"><sodipodi:namedview
     id="namedview1"
     pagecolor="#1e1e1e"
     bordercolor="#000000"
     borderopacity="0.25"
     inkscape:showpageshadow="2"
     inkscape:pageopacity="0.0"
     inkscape:pagecheckerboard="0"
     inkscape:deskcolor="#1e1e1e"
     inkscape:document-units="px"
     showborder="false"
     showguides="true"
     inkscape:zoom="5.6568542"
     inkscape:cx="115.17002"
     inkscape:cy="35.797281"
     inkscape:window-width="2560"
     inkscape:window-height="1369"
     inkscape:window-x="-8"
     inkscape:window-y="-8"
     inkscape:window-maximized="1"
     inkscape:current-layer="layer1" /><defs
     id="defs1" /><g
     inkscape:label="Layer 1"
     inkscape:groupmode="layer"
     id="layer1"
     transform="matrix(0.26429695,0,0,0.26429695,-115.47532,40.154059)"
     style="stroke-width:3.78362"><g
       id="g1"><path
         d="m 512.56171,-115.48701 v -4.65517 h -4.65517 v -6.98277 h 2.32758 v 4.65518 h 2.32759 v -4.65518 h 2.32759 v 4.65518 h 2.32759 v 2.32759 h -2.32759 v 4.65517 z m 11.63794,0 v -2.32758 h -2.32759 v -6.98277 h 2.32759 v -2.32759 h 4.65518 v 2.32759 h 2.32758 v 6.98277 h -2.32758 v 2.32758 z m 0,-2.42069 h 4.65518 v -6.79655 h -4.65518 z m 16.29311,2.42069 v -4.65517 h -4.65517 v -6.98277 h 2.32759 v 4.65518 h 2.32758 v -4.65518 h 2.32759 v 4.65518 h 2.32759 v 2.32759 h -2.32759 v 4.65517 z"
         id="text2"
         style="font-size:18.6207px;font-family:Silkscreen;-inkscape-font-specification:Silkscreen;letter-spacing:0px;fill:#c8c9ca;stroke-width:3.78772;stroke-linecap:round;stroke-linejoin:round"
         aria-label="404" /><path
         d="m 436.91505,-140.28987 v -11.63794 h 6.98276 v 2.32759 h 2.32759 v 2.32759 h -2.32759 v 2.32758 h -4.65517 v 4.65518 z m 2.32759,-6.98276 h 4.56207 v -2.32759 h -4.56207 z m 11.63794,6.98276 v -9.31035 h 2.32758 v -2.32759 h 4.65518 v 2.32759 h 2.32759 v 9.31035 h -2.32759 v -4.65518 h -4.65518 v 4.65518 z m 2.32758,-6.98276 h 4.65518 v -2.23449 h -4.65518 z m 13.96553,-2.32759 v -2.32759 h 6.98276 v 2.32759 z m -2.32759,6.98276 v -6.98276 h 2.32759 v 6.98276 z m 6.98277,0 v -2.32759 h -2.32759 v -2.32758 h 4.65517 v 4.65517 z m -4.65518,2.32759 v -2.32759 h 4.65518 v 2.32759 z m 11.63794,0 v -11.63794 h 6.98276 v 2.32759 h -4.65518 v 2.32759 h 4.65518 v 2.32758 h -4.65518 v 2.32759 h 4.65518 v 2.32759 z m 20.94828,0 v -11.63794 h 2.32759 v 2.32759 h 2.32759 v 2.32759 h 2.32759 v 2.32758 h 2.32759 v -6.98276 h 2.32758 v 11.63794 h -2.32758 v -2.32759 h -2.32759 v -2.32759 h -2.32759 v -2.32758 h -2.32759 v 6.98276 z m 18.62071,0 v -2.32759 h -2.32759 v -6.98276 h 2.32759 v -2.32759 h 4.65517 v 2.32759 h 2.32759 v 6.98276 h -2.32759 v 2.32759 z m 0,-2.42069 h 4.65517 v -6.79656 h -4.65517 z m 13.96552,2.42069 v -9.31035 h -2.32759 v -2.32759 h 6.98276 v 2.32759 h -2.32758 v 9.31035 z m 18.6207,0 v -11.63794 h 6.98276 v 2.32759 h -4.65517 v 2.32759 h 4.65517 v 2.32758 h -4.65517 v 4.65518 z m 13.96553,0 v -2.32759 h -2.32759 v -6.98276 h 2.32759 v -2.32759 h 4.65517 v 2.32759 h 2.32759 v 6.98276 h -2.32759 v 2.32759 z m 0,-2.42069 h 4.65517 v -6.79656 h -4.65517 z m 13.96553,2.42069 v -2.32759 h -2.32759 v -9.31035 h 2.32759 v 9.31035 h 4.65517 v 2.32759 z m 4.65517,-2.32759 v -9.31035 h 2.32759 v 9.31035 z m 6.98277,2.32759 v -11.63794 h 2.32759 v 2.32759 h 2.32758 v 2.32759 h 2.32759 v 2.32758 h 2.32759 v -6.98276 h 2.32759 v 11.63794 h -2.32759 v -2.32759 h -2.32759 v -2.32759 h -2.32759 v -2.32758 h -2.32758 v 6.98276 z m 16.29311,0 v -11.63794 h 6.98276 v 2.32759 h 2.32759 v 6.98276 h -2.32759 v 2.32759 z m 2.32758,-2.32759 h 4.56207 v -6.98276 h -4.56207 z"
         id="text3"
         style="font-size:18.6207px;font-family:Silkscreen;-inkscape-font-specification:Silkscreen;letter-spacing:0px;fill:#c8c9ca;stroke-width:3.78772;stroke-linecap:round;stroke-linejoin:round"
         aria-label="page not found" /></g></g></svg>
