<?xml version="1.0" encoding="UTF-8" standalone="no"?>
<!-- Created with Inkscape (http://www.inkscape.org/) -->

<svg
   width="44.292545mm"
   height="3.0758719mm"
   viewBox="0 0 44.292546 3.075872"
   version="1.1"
   id="svg1"
   xml:space="preserve"
   sodipodi:docname="nothing-found.svg"
   inkscape:version="1.3 (0e150ed6c4, 2023-07-21)"
   xmlns:inkscape="http://www.inkscape.org/namespaces/inkscape"
   xmlns:sodipodi="http://sodipodi.sourceforge.net/DTD/sodipodi-0.dtd"
   xmlns="http://www.w3.org/2000/svg"
   xmlns:svg="http://www.w3.org/2000/svg"><sodipodi:namedview
     id="namedview1"
     pagecolor="#1e1e1e"
     bordercolor="#000000"
     borderopacity="0.25"
     inkscape:showpageshadow="2"
     inkscape:pageopacity="0.0"
     inkscape:pagecheckerboard="0"
     inkscape:deskcolor="#1e1e1e"
     inkscape:document-units="px"
     showborder="false"
     showguides="true"
     inkscape:zoom="4"
     inkscape:cx="92.375"
     inkscape:cy="44.375"
     inkscape:window-width="2560"
     inkscape:window-height="1369"
     inkscape:window-x="-8"
     inkscape:window-y="-8"
     inkscape:window-maximized="1"
     inkscape:current-layer="layer1" /><defs
     id="defs1" /><g
     inkscape:label="Layer 1"
     inkscape:groupmode="layer"
     id="layer1"
     transform="matrix(0.26429695,0,0,0.26429695,-117.01326,26.791465)"
     style="stroke-width:3.78362"><path
       d="M 442.73405,-89.730858 V -101.3688 h 2.32759 v 2.327592 h 2.32759 v 2.327587 h 2.32758 v 2.327588 h 2.32759 v -6.982767 h 2.32759 v 11.637942 h -2.32759 v -2.327587 h -2.32759 v -2.327588 h -2.32758 v -2.327588 h -2.32759 v 6.982763 z m 18.6207,0 v -2.327587 h -2.32759 v -6.982763 h 2.32759 v -2.327592 h 4.65518 v 2.327592 h 2.32759 v 6.982763 h -2.32759 v 2.327587 z m 0,-2.420691 h 4.65518 v -6.796556 h -4.65518 z m 13.96553,2.420691 v -9.31035 h -2.32759 v -2.327592 h 6.98276 v 2.327592 h -2.32758 v 9.31035 z m 9.31035,0 V -101.3688 h 2.32758 v 4.655179 h 4.65518 v -4.655179 h 2.32759 v 11.637942 h -2.32759 v -4.655175 h -4.65518 v 4.655175 z m 13.96552,0 V -101.3688 h 2.32759 v 11.637942 z m 6.98277,0 V -101.3688 h 2.32758 v 2.327592 h 2.32759 v 2.327587 h 2.32759 v 2.327588 h 2.32759 v -6.982767 h 2.32758 v 11.637942 h -2.32758 v -2.327587 h -2.32759 v -2.327588 h -2.32759 v -2.327588 h -2.32759 v 6.982763 z m 18.6207,-9.31035 v -2.327592 h 6.98276 v 2.327592 z m -2.32759,6.982763 v -6.982763 h 2.32759 v 6.982763 z m 6.98276,0 v -2.327588 h -2.32759 v -2.327588 h 4.65518 v 4.655176 z m -4.65517,2.327587 v -2.327587 h 4.65517 v 2.327587 z m 20.94829,0 V -101.3688 h 6.98276 v 2.327592 h -4.65517 v 2.327587 h 4.65517 v 2.327588 h -4.65517 v 4.655175 z m 13.96552,0 v -2.327587 h -2.32758 v -6.982763 h 2.32758 v -2.327592 h 4.65518 v 2.327592 h 2.32759 v 6.982763 h -2.32759 v 2.327587 z m 0,-2.420691 h 4.65518 v -6.796556 h -4.65518 z m 13.96553,2.420691 v -2.327587 h -2.32759 v -9.310355 h 2.32759 v 9.310355 h 4.65517 v 2.327587 z m 4.65517,-2.327587 v -9.310355 h 2.32759 v 9.310355 z m 6.98277,2.327587 V -101.3688 h 2.32759 v 2.327592 h 2.32759 v 2.327587 h 2.32758 v 2.327588 h 2.32759 v -6.982767 h 2.32759 v 11.637942 h -2.32759 v -2.327587 h -2.32759 v -2.327588 h -2.32758 v -2.327588 h -2.32759 v 6.982763 z m 16.29311,0 V -101.3688 h 6.98276 v 2.327592 h 2.32759 v 6.982763 h -2.32759 v 2.327587 z m 2.32758,-2.327587 h 4.56208 v -6.982763 h -4.56208 z"
       id="text1"
       style="font-size:18.6207px;font-family:Silkscreen;-inkscape-font-specification:Silkscreen;letter-spacing:0px;fill:#c8c9ca;stroke-width:3.78771;stroke-linecap:round;stroke-linejoin:round"
       aria-label="NOTHING FOUND" /></g></svg>
