<?xml version="1.0" encoding="UTF-8" standalone="no"?>
<!-- Created with Inkscape (http://www.inkscape.org/) -->

<svg
   width="47.213943mm"
   height="21.948578mm"
   viewBox="0 0 47.213943 21.948578"
   version="1.1"
   id="svg1"
   xml:space="preserve"
   xmlns:inkscape="http://www.inkscape.org/namespaces/inkscape"
   xmlns:sodipodi="http://sodipodi.sourceforge.net/DTD/sodipodi-0.dtd"
   xmlns="http://www.w3.org/2000/svg"
   xmlns:svg="http://www.w3.org/2000/svg"><sodipodi:namedview
     id="namedview1"
     pagecolor="#ffffff"
     bordercolor="#000000"
     borderopacity="0.25"
     inkscape:showpageshadow="2"
     inkscape:pageopacity="0.0"
     inkscape:pagecheckerboard="0"
     inkscape:deskcolor="#d1d1d1"
     inkscape:document-units="mm"
     showguides="false"><sodipodi:guide
       position="-0.24681742,91.011002"
       orientation="1,0"
       id="guide1"
       inkscape:locked="false" /><sodipodi:guide
       position="47.460783,54.90289"
       orientation="1,0"
       id="guide2"
       inkscape:locked="false" /><sodipodi:guide
       position="32.363413,277.06337"
       orientation="1,0"
       id="guide3"
       inkscape:locked="false" /><sodipodi:guide
       position="20.089223,297.00001"
       orientation="0,-1"
       id="guide4"
       inkscape:locked="false" /><sodipodi:guide
       position="3.6189026,283.21494"
       orientation="0,-1"
       id="guide5"
       inkscape:locked="false" /><sodipodi:guide
       position="55.199833,288.48544"
       orientation="0,-1"
       id="guide6"
       inkscape:locked="false" /></sodipodi:namedview><defs
     id="defs1" /><g
     inkscape:label="Layer 1"
     inkscape:groupmode="layer"
     id="layer1"
     transform="translate(-277.69932,6.1783002)"><g
       id="g6"><g
         id="g2"
         transform="matrix(1.1407634,0,0,1.1407634,-39.089902,0.8696785)"><path
           id="path71"
           style="font-weight:bold;font-size:12.7px;font-family:Inconsolata;-inkscape-font-specification:'Inconsolata Bold';letter-spacing:0px;fill:#c8c8c8;fill-opacity:1;stroke-width:0.584205;stroke-linejoin:bevel"
           d="m 304.51788,-6.1783 c -0.19318,0 -0.35233,0.0592 -0.47696,0.17762 -0.1246,0.1184 -0.18675,0.27098 -0.18675,0.45793 0,0.17448 0.0655,0.32417 0.19626,0.4488 0.13086,0.12461 0.28673,0.18713 0.46745,0.18713 0.17448,0 0.32706,-0.0625 0.45792,-0.18713 0.13712,-0.12463 0.20577,-0.27432 0.20577,-0.4488 0,-0.17448 -0.0687,-0.32379 -0.20577,-0.44842 -0.13086,-0.12461 -0.28344,-0.18713 -0.45792,-0.18713 z m -19.936,0.0654 v 6.27221 h 1.06573 v -2.4958 c 0,-0.14333 0.0156,-0.27412 0.0468,-0.39252 0.0312,-0.1184 0.0776,-0.22449 0.13997,-0.31796 0.0685,-0.0935 0.14338,-0.17119 0.2244,-0.23353 0.0811,-0.0685 0.17148,-0.11834 0.27118,-0.14948 0.0997,-0.0311 0.20252,-0.0468 0.30846,-0.0468 0.12463,0 0.23034,0.0308 0.31759,0.0932 0.0935,0.0623 0.16542,0.17168 0.21526,0.32747 0.0498,0.14955 0.0746,0.35191 0.0746,0.60741 v 2.608 h 1.06571 v -2.62663 c 0,-0.42998 -0.0592,-0.77914 -0.17762,-1.04709 -0.11215,-0.27419 -0.2742,-0.47037 -0.48606,-0.58877 -0.20565,-0.12461 -0.4487,-0.18674 -0.72912,-0.18674 -0.14956,0 -0.30543,0.0247 -0.46744,0.0745 -0.15579,0.0498 -0.30221,0.1247 -0.4393,0.2244 -0.13709,0.0935 -0.25843,0.21809 -0.36437,0.37388 -0.0116,-0.70067 0,-2.4958 0,-2.4958 z m 13.89655,0 -7.5e-4,7.95446 c -0.0685,-0.12464 -0.159,-0.22128 -0.27117,-0.28982 -0.10593,-0.0748 -0.22727,-0.13073 -0.36436,-0.16811 -0.13086,-0.0374 -0.26783,-0.0563 -0.41116,-0.0563 -0.25548,0 -0.49236,0.0469 -0.71047,0.14035 -0.21811,0.0935 -0.41139,0.23662 -0.57964,0.42978 -0.16203,0.18695 -0.28954,0.42383 -0.38301,0.71048 -0.0935,0.28042 -0.14035,0.60778 -0.14035,0.98167 0,0.38635 0.0468,0.72277 0.14035,1.00942 0.0997,0.28665 0.23338,0.52643 0.40164,0.71961 0.16825,0.19318 0.35826,0.33669 0.57013,0.43016 0.2181,0.0935 0.44882,0.13997 0.69185,0.13997 0.14955,0 0.2898,-0.0218 0.42066,-0.0654 0.13086,-0.0374 0.25219,-0.0995 0.36436,-0.18675 0.11217,-0.0872 0.20591,-0.19624 0.28069,-0.3271 v 0.17762 c 0.006,0.0437 0.0153,0.0872 0.0277,0.13084 0.0125,0.0436 0.0347,0.0996 0.0658,0.16811 h 1.0372 c -0.0436,-0.0997 -0.0716,-0.19635 -0.0841,-0.28982 -0.0125,-0.0935 -0.0186,-0.19011 -0.0186,-0.28982 -0.0178,-1.80717 -0.0241,-5.15938 -0.0247,-5.48985 0.0916,0.10974 0.1898,0.20889 0.29666,0.29324 0.12463,0.0872 0.2587,0.15262 0.40202,0.19626 0.14332,0.0436 0.29264,0.0654 0.44843,0.0654 0.24302,0 0.47046,-0.0469 0.68233,-0.14035 0.2181,-0.0997 0.41139,-0.24612 0.57964,-0.43929 0.16825,-0.19318 0.29904,-0.43624 0.3925,-0.72912 0.0997,-0.29911 0.14948,-0.64827 0.14948,-1.04708 0,-0.36766 -0.0435,-0.68846 -0.13084,-0.96264 -0.081,-0.27419 -0.19907,-0.50163 -0.35486,-0.68234 -0.14955,-0.18694 -0.33339,-0.32718 -0.55149,-0.42066 -0.21186,-0.0935 -0.45203,-0.13996 -0.71998,-0.13996 -0.11217,0 -0.22445,0.0123 -0.33661,0.0372 -0.10593,0.025 -0.20874,0.0653 -0.30845,0.12133 -0.0997,0.0498 -0.18979,0.11235 -0.27081,0.18713 -0.081,0.0748 -0.15588,0.15579 -0.2244,0.24304 -0.0127,-0.66306 0,-2.41175 0,-2.41175 z m -2.67381,1.82297 c -0.28665,0 -0.55478,0.0527 -0.80404,0.1586 -0.24926,0.0997 -0.46724,0.24939 -0.65419,0.44881 -0.18071,0.1994 -0.32385,0.44246 -0.42979,0.72911 -0.10591,0.28665 -0.15898,0.61073 -0.15898,0.97216 0,0.35519 0.053,0.6731 0.15898,0.95351 0.10594,0.28042 0.25525,0.51692 0.44843,0.7101 0.19941,0.18695 0.4301,0.33046 0.69183,0.43017 0.26796,0.0997 0.55752,0.14947 0.86909,0.14947 0.21187,0 0.41461,-0.0251 0.60778,-0.0749 0.19942,-0.0436 0.38326,-0.11809 0.55151,-0.22402 0.17447,-0.11217 0.33034,-0.24951 0.46743,-0.41153 l -0.54236,-0.52335 c -0.0997,0.0997 -0.20542,0.1807 -0.31759,0.24304 -0.10593,0.0623 -0.22148,0.10589 -0.34611,0.13084 -0.11841,0.0249 -0.24301,0.0372 -0.37388,0.0372 -0.14955,0 -0.29269,-0.0218 -0.42977,-0.0654 -0.13711,-0.0498 -0.26171,-0.12142 -0.37389,-0.2149 -0.11217,-0.0935 -0.20266,-0.21191 -0.27117,-0.35524 -0.0685,-0.14955 -0.1089,-0.32722 -0.12134,-0.53286 h 2.8788 c 0.007,-0.0623 0.01,-0.13678 0.01,-0.22402 0.007,-0.0872 0.009,-0.16206 0.009,-0.2244 0,-0.34897 -0.0497,-0.65452 -0.14947,-0.91624 -0.0997,-0.26796 -0.23667,-0.48922 -0.41115,-0.6637 -0.16824,-0.18071 -0.36481,-0.3144 -0.58915,-0.40163 -0.22433,-0.0872 -0.46411,-0.13084 -0.7196,-0.13084 z m -6.56088,0.1027 v 2.55171 c 0,0.26795 0.0247,0.50773 0.0746,0.71961 0.0498,0.20563 0.11852,0.38329 0.20575,0.53285 0.0935,0.14955 0.20247,0.27417 0.3271,0.37387 0.12464,0.0935 0.26487,0.16212 0.42066,0.20577 0.15578,0.0498 0.3211,0.0749 0.49558,0.0749 0.1184,0 0.23356,-0.0157 0.34573,-0.0468 0.1184,-0.0311 0.2274,-0.0747 0.3271,-0.13083 0.10594,-0.0561 0.20257,-0.12476 0.28981,-0.20576 0.0872,-0.0873 0.16501,-0.18389 0.23354,-0.28983 v 0.18713 c 0.006,0.0623 0.0157,0.12441 0.0281,0.18675 0.0125,0.0623 0.0343,0.12479 0.0655,0.18713 h 0.96263 c -0.0436,-0.10594 -0.0716,-0.21203 -0.0841,-0.31796 -0.007,-0.11217 -0.01,-0.23679 -0.01,-0.37388 v -3.6547 h -1.0562 v 2.47716 c 0,0.19317 -0.0219,0.36138 -0.0655,0.50471 -0.0436,0.13709 -0.10612,0.25226 -0.18713,0.34573 -0.0748,0.0935 -0.16815,0.16507 -0.28032,0.21489 -0.10593,0.0436 -0.22437,0.0654 -0.35523,0.0654 -0.0935,0 -0.18395,-0.0186 -0.27119,-0.0559 -0.081,-0.0374 -0.15255,-0.0966 -0.21488,-0.17762 -0.0624,-0.0872 -0.10921,-0.19624 -0.14036,-0.3271 -0.0312,-0.13709 -0.0468,-0.30241 -0.0468,-0.49558 v -2.55171 z m 13.77825,0 v 0.8318 h 1.00979 v 2.68255 h -1.06571 v 0.83219 h 3.10321 v -0.83219 h -0.97215 v -3.51435 z m -2.58062,0.69183 c 0.14956,0 0.28034,0.0342 0.39251,0.1027 0.1184,0.0685 0.21832,0.16808 0.29933,0.29894 0.081,0.12463 0.14311,0.2805 0.18675,0.46745 0.0436,0.18694 0.0655,0.39874 0.0655,0.63555 0,0.26172 -0.0247,0.48625 -0.0746,0.6732 -0.0498,0.18071 -0.11852,0.32713 -0.20577,0.4393 -0.0872,0.11217 -0.19006,0.19608 -0.30846,0.25216 -0.11839,0.0498 -0.24301,0.0749 -0.37387,0.0749 -0.14956,0 -0.28036,-0.0312 -0.39253,-0.0936 -0.10592,-0.0685 -0.1964,-0.1652 -0.27118,-0.28982 -0.0685,-0.13086 -0.12159,-0.28635 -0.15897,-0.46706 -0.0312,-0.18694 -0.0468,-0.39913 -0.0468,-0.63593 0.006,-0.30535 0.0436,-0.56692 0.11219,-0.78502 0.0685,-0.21811 0.16847,-0.38342 0.29933,-0.49559 0.13709,-0.11843 0.29586,-0.17724 0.47657,-0.17724 z m -4.68353,0.0278 c 0.14332,0 0.26794,0.0218 0.37388,0.0654 0.11217,0.0374 0.20553,0.0966 0.28031,0.17762 0.0748,0.081 0.1311,0.18093 0.16849,0.29933 0.0436,0.11839 0.0655,0.25208 0.0655,0.40164 h -1.85074 c 0.0186,-0.16202 0.0562,-0.30226 0.1122,-0.42066 0.0561,-0.1184 0.12764,-0.21794 0.21489,-0.29894 0.0872,-0.081 0.18387,-0.13698 0.28981,-0.16811 0.11218,-0.0374 0.22734,-0.0563 0.34574,-0.0563 z m -7.11505,4.80447 c -0.32404,0 -0.62304,0.0621 -0.89723,0.18675 -0.26795,0.1184 -0.50483,0.28372 -0.71048,0.49558 -0.19939,0.20564 -0.35527,0.4487 -0.46743,0.72912 -0.11217,0.28042 -0.16811,0.57942 -0.16811,0.89723 0,0.33027 0.056,0.63254 0.16811,0.90673 0.11216,0.27419 0.26804,0.51107 0.46743,0.71048 0.20565,0.19942 0.44253,0.35527 0.71048,0.46744 0.27419,0.11216 0.56992,0.16811 0.88773,0.16811 0.31158,0 0.62002,-0.0559 0.92536,-0.16811 0.26746,-0.10371 0.50458,-0.26349 0.71468,-0.47239 l -0.62606,-0.62604 c -0.0699,0.0692 -0.14237,0.13208 -0.21945,0.18219 -0.1184,0.0748 -0.23973,0.13109 -0.36437,0.16848 -0.12463,0.0374 -0.25251,0.0559 -0.38338,0.0559 -0.16203,0 -0.31751,-0.0312 -0.46706,-0.0936 -0.14333,-0.0685 -0.27122,-0.16192 -0.38339,-0.28032 -0.10594,-0.12462 -0.19314,-0.27104 -0.26167,-0.43929 -0.0624,-0.17448 -0.0936,-0.36777 -0.0936,-0.57964 0,-0.2368 0.0313,-0.44533 0.0936,-0.62604 0.0623,-0.18072 0.14951,-0.33041 0.26167,-0.4488 0.11217,-0.12463 0.23678,-0.218 0.37387,-0.28032 0.14333,-0.0685 0.29302,-0.10307 0.44881,-0.10307 0.18695,0 0.35188,0.0218 0.49521,0.0654 0.14332,0.0374 0.27411,0.11551 0.3925,0.23391 0.0637,0.0693 0.10066,0.12968 0.11602,0.18294 l 0.63403,-0.63403 c -0.16022,-0.19396 -0.3586,-0.35349 -0.60019,-0.47428 -0.29911,-0.14957 -0.64826,-0.2244 -1.04708,-0.2244 z m 4.11872,0 c -0.38637,0 -0.7384,0.0995 -1.05621,0.29895 -0.31156,0.1994 -0.55791,0.47044 -0.73862,0.81317 -0.18071,0.34273 -0.27081,0.72931 -0.27081,1.15928 0,0.44867 0.0901,0.84432 0.27081,1.18704 0.18071,0.34273 0.42706,0.61087 0.73862,0.80405 0.31781,0.18694 0.66984,0.28031 1.05621,0.28031 0.39258,0 0.74463,-0.0934 1.05621,-0.28031 0.3178,-0.19318 0.56704,-0.46132 0.74775,-0.80405 0.18695,-0.34272 0.28032,-0.73837 0.28032,-1.18704 0,-0.42997 -0.0934,-0.81655 -0.28032,-1.15928 -0.18071,-0.34273 -0.42995,-0.61377 -0.74775,-0.81317 -0.31158,-0.19942 -0.66363,-0.29895 -1.05621,-0.29895 z m 9.63291,0 c -0.28664,0 -0.55479,0.0531 -0.80404,0.15898 -0.24927,0.0997 -0.46724,0.24902 -0.65419,0.44843 -0.18071,0.1994 -0.32423,0.44246 -0.43016,0.72912 -0.10594,0.28665 -0.15899,0.61072 -0.15899,0.97215 0,0.35519 0.053,0.67309 0.15899,0.95351 0.10593,0.28042 0.25562,0.5173 0.4488,0.71048 0.19941,0.18694 0.42974,0.33008 0.69146,0.42978 0.26795,0.0997 0.55789,0.14948 0.86946,0.14948 0.21188,0 0.41423,-0.0247 0.6074,-0.0746 0.19942,-0.0436 0.38325,-0.11847 0.5515,-0.2244 0.17448,-0.11217 0.33034,-0.24914 0.46743,-0.41115 L 303.6001,4.65492 c -0.0997,0.0997 -0.20579,0.18072 -0.31796,0.24303 -0.10593,0.0623 -0.2211,0.10592 -0.34573,0.13085 -0.1184,0.025 -0.24301,0.0377 -0.37388,0.0377 -0.14954,0 -0.29307,-0.0218 -0.43016,-0.0654 -0.1371,-0.0498 -0.26172,-0.1218 -0.37388,-0.21527 -0.11217,-0.0935 -0.20226,-0.21154 -0.2708,-0.35486 -0.0685,-0.14956 -0.10924,-0.32723 -0.12171,-0.53286 h 2.87918 c 0.006,-0.0623 0.01,-0.13716 0.01,-0.2244 0.006,-0.0873 0.01,-0.16209 0.01,-0.2244 0,-0.34897 -0.0502,-0.65414 -0.14987,-0.91587 -0.0997,-0.26794 -0.23666,-0.48921 -0.41114,-0.66369 -0.16824,-0.18071 -0.36444,-0.31478 -0.58877,-0.40202 -0.22433,-0.0872 -0.4641,-0.13084 -0.71961,-0.13084 z m -4.82348,0.81317 c 0.20564,0 0.37384,0.0531 0.5047,0.15899 0.13087,0.10593 0.22751,0.26797 0.28983,0.48607 0.0624,0.21187 0.0936,0.47962 0.0936,0.80366 0,0.2368 -0.0185,0.44862 -0.056,0.63556 -0.0312,0.18071 -0.0842,0.3304 -0.15899,0.4488 -0.0685,0.1184 -0.15902,0.20887 -0.27118,0.27118 -0.10593,0.0561 -0.23055,0.0841 -0.37388,0.0841 -0.17448,0 -0.33324,-0.0592 -0.47657,-0.17762 -0.14332,-0.11841 -0.25886,-0.28661 -0.34611,-0.50472 -0.0811,-0.2181 -0.12133,-0.47968 -0.12133,-0.78502 0,-0.2181 0.0186,-0.41467 0.056,-0.58915 0.0436,-0.17448 0.10284,-0.3238 0.17763,-0.44842 0.0748,-0.12463 0.17142,-0.21838 0.28981,-0.28069 0.11841,-0.0685 0.24919,-0.1027 0.39252,-0.1027 z m 4.7767,0.01 c 0.14332,0 0.26794,0.0218 0.37387,0.0654 0.11218,0.0374 0.20554,0.0966 0.28031,0.17762 0.0748,0.081 0.13073,0.18054 0.16812,0.29894 0.0436,0.1184 0.0655,0.25247 0.0655,0.40202 h -1.85075 c 0.0186,-0.16202 0.0562,-0.30226 0.11221,-0.42065 0.0561,-0.11841 0.12764,-0.21832 0.21488,-0.29933 0.0872,-0.081 0.18389,-0.13695 0.28982,-0.16811 0.11217,-0.0374 0.22772,-0.0559 0.34611,-0.0559 z m -9.58613,0.0277 c 0.20563,0 0.38331,0.0592 0.53286,0.17762 0.14956,0.11217 0.26799,0.2742 0.35523,0.48607 0.0935,0.21188 0.13997,0.46438 0.13997,0.75726 0,0.28042 -0.0465,0.52966 -0.13997,0.74776 -0.0872,0.21187 -0.20567,0.38008 -0.35523,0.50471 -0.14955,0.1184 -0.32723,0.17761 -0.53286,0.17761 -0.19319,0 -0.36756,-0.0593 -0.52335,-0.17761 -0.14956,-0.12463 -0.268,-0.29284 -0.35524,-0.50471 -0.0872,-0.2181 -0.13084,-0.46734 -0.13084,-0.74776 0,-0.29288 0.0435,-0.54538 0.13084,-0.75726 0.0935,-0.21187 0.21481,-0.3739 0.36437,-0.48607 0.15578,-0.1184 0.32725,-0.17762 0.51422,-0.17762 z"
           sodipodi:nodetypes="ssscscscscccssccssccsccsccscccccccccssccscscscsccsccscccsscscscccsccscccscccssccsccccccscsccccscccscsccccscccccscccsccscccscccscccccccccccccsccsscscsccccccsscscccsscssccsssccsccccsscccscccsccccssscssscsccsccssccsssccsccccccscsccccsccsssccscccsccscscsscsccccscssccsccsccsccs" /><g
           id="g3"
           transform="matrix(0.84115255,0,0,0.84115255,160.36722,-175.56485)"><rect
             style="fill:#17b6ff;fill-opacity:1;stroke:none;stroke-width:23.5475;stroke-linejoin:bevel;stroke-dasharray:none;stroke-opacity:1"
             id="rect71"
             width="1.7156141"
             height="6.2722316"
             x="248.38164"
             y="-51.113407"
             transform="matrix(0.70710678,0.70710678,0.70710678,-0.70710678,0,0)" /><rect
             style="fill:#17b6ff;fill-opacity:1;stroke:none;stroke-width:23.5475;stroke-linejoin:bevel;stroke-dasharray:none;stroke-opacity:1"
             id="rect72"
             width="1.7156141"
             height="6.2722316"
             x="-46.556789"
             y="-250.09726"
             transform="matrix(0.70710678,-0.70710678,-0.70710678,-0.70710678,0,0)" /></g></g><text
         xml:space="preserve"
         style="font-style:normal;font-variant:normal;font-weight:600;font-stretch:normal;font-size:3.39557px;font-family:Inconsolata;-inkscape-font-specification:'Inconsolata Semi-Bold';letter-spacing:0px;fill:#17b6ff;fill-opacity:1;stroke:none;stroke-width:12.7334;stroke-linejoin:bevel;stroke-dasharray:none;stroke-opacity:1"
         x="277.71185"
         y="15.172657"
         id="text73"><tspan
           sodipodi:role="line"
           id="tspan73"
           style="font-style:normal;font-variant:normal;font-weight:600;font-stretch:normal;font-size:3.39557px;font-family:Inconsolata;-inkscape-font-specification:'Inconsolata Semi-Bold';fill:#17b6ff;fill-opacity:1;stroke-width:12.7334"
           x="277.71185"
           y="15.172657"
           dx="0 -0.12 -0.079999998 -0.31999996 0 0 0 0.51999986 0 -0.059999999 -0.090000004 -0.029999984 0 -0.090000004 0.18000001 0.28 0 0 0 -0.19000001 0 -0.039999999 0.039999999 0 0 0 -0.12 -0.039999992">infosec programming thoughts</tspan></text></g></g></svg>
