<?xml version="1.0" encoding="UTF-8" standalone="no"?>
<!-- Created with Inkscape (http://www.inkscape.org/) -->

<svg
   width="47.213947mm"
   height="21.948578mm"
   viewBox="0 0 47.213947 21.948578"
   version="1.1"
   id="svg1"
   xml:space="preserve"
   sodipodi:docname="logo.svg"
   xmlns:inkscape="http://www.inkscape.org/namespaces/inkscape"
   xmlns:sodipodi="http://sodipodi.sourceforge.net/DTD/sodipodi-0.dtd"
   xmlns:xlink="http://www.w3.org/1999/xlink"
   xmlns="http://www.w3.org/2000/svg"
   xmlns:svg="http://www.w3.org/2000/svg"><sodipodi:namedview
     id="namedview1"
     pagecolor="#1e1e1e"
     bordercolor="#000000"
     borderopacity="0.25"
     inkscape:showpageshadow="2"
     inkscape:pageopacity="0.0"
     inkscape:pagecheckerboard="0"
     inkscape:deskcolor="#1e1e1e"
     inkscape:document-units="mm"
     showguides="false"
     showborder="false"><sodipodi:guide
       position="-0.2468137,91.011002"
       orientation="1,0"
       id="guide1"
       inkscape:locked="false" /><sodipodi:guide
       position="47.460787,54.90289"
       orientation="1,0"
       id="guide2"
       inkscape:locked="false" /><sodipodi:guide
       position="32.363417,277.06337"
       orientation="1,0"
       id="guide3"
       inkscape:locked="false" /><sodipodi:guide
       position="20.089227,297.00001"
       orientation="0,-1"
       id="guide4"
       inkscape:locked="false" /><sodipodi:guide
       position="3.6189063,283.21494"
       orientation="0,-1"
       id="guide5"
       inkscape:locked="false" /><sodipodi:guide
       position="55.199837,288.48544"
       orientation="0,-1"
       id="guide6"
       inkscape:locked="false" /></sodipodi:namedview><defs
     id="defs1"><linearGradient
       id="linearGradient1"
       inkscape:collect="always"><stop
         style="stop-color:#149bd9;stop-opacity:1;"
         offset="0"
         id="stop1" /><stop
         style="stop-color:#17b6ff;stop-opacity:1;"
         offset="1"
         id="stop2" /></linearGradient><linearGradient
       inkscape:collect="always"
       xlink:href="#linearGradient1"
       id="linearGradient2"
       x1="201.1189"
       y1="194.9839"
       x2="195.98787"
       y2="200.11493"
       gradientUnits="userSpaceOnUse" /></defs><g
     inkscape:label="Layer 1"
     inkscape:groupmode="layer"
     id="layer1"
     transform="translate(-277.69932,6.1783)"><g
       id="g2"><path
         id="path71"
         style="font-weight:bold;font-size:12.7px;font-family:Inconsolata;-inkscape-font-specification:'Inconsolata Bold';letter-spacing:0px;fill:#c8c8c8;fill-opacity:1;stroke-width:0.66644;stroke-linejoin:bevel"
         d="m 308.29295,-6.1783 c -0.22037,0 -0.40193,0.067533 -0.5441,0.2026224 -0.14214,0.1350664 -0.21304,0.309124 -0.21304,0.5223898 0,0.1990404 0.0747,0.3698012 0.22389,0.5119746 0.14928,0.1421505 0.32709,0.213471 0.53325,0.213471 0.19904,0 0.3731,-0.071298 0.52238,-0.213471 0.15642,-0.1421734 0.23473,-0.3129342 0.23473,-0.5119746 0,-0.1990404 -0.0784,-0.3693678 -0.23473,-0.5115412 -0.14928,-0.1421505 -0.32334,-0.213471 -0.52238,-0.213471 z m -22.74226,0.074606 v 7.1551076 h 1.21575 v -2.8471173 c 0,-0.1635056 0.0178,-0.312706 0.0534,-0.4477724 0.0356,-0.1350664 0.0885,-0.25609 0.15968,-0.3627172 0.0781,-0.1066613 0.16356,-0.1952872 0.25598,-0.2664024 0.0925,-0.078142 0.19562,-0.134998 0.30936,-0.1705213 0.11373,-0.035478 0.23102,-0.053388 0.35188,-0.053388 0.14217,0 0.26276,0.035135 0.36229,0.1063192 0.10666,0.07107 0.18871,0.1958462 0.24556,0.3735658 0.0568,0.1706011 0.0851,0.401446 0.0851,0.6929111 V 1.051402 h 1.21573 v -2.9963634 c 0,-0.4905054 -0.0675,-0.8888144 -0.20263,-1.1944819 -0.12793,-0.3127859 -0.31279,-0.5365809 -0.55448,-0.6716473 -0.23459,-0.1421505 -0.51186,-0.2130261 -0.83175,-0.2130261 -0.17061,0 -0.34842,0.028177 -0.53324,0.084987 -0.17772,0.05681 -0.34475,0.1422532 -0.50113,0.2559873 -0.15639,0.1066614 -0.29481,0.2487891 -0.41566,0.4265087 -0.0132,-0.7992987 0,-2.8471173 0,-2.8471173 z m 15.85268,0 -8.6e-4,9.0741568 c -0.0781,-0.1421847 -0.18138,-0.2524281 -0.30934,-0.330616 -0.12084,-0.085329 -0.25926,-0.149132 -0.41565,-0.1917737 -0.14928,-0.042665 -0.30553,-0.064225 -0.46903,-0.064225 -0.29145,0 -0.56167,0.053502 -0.81048,0.1601061 -0.24881,0.1066614 -0.4693,0.2699275 -0.66123,0.4902773 -0.18484,0.2132657 -0.3303,0.4834898 -0.43693,0.8104896 -0.10666,0.3198929 -0.1601,0.6933332 -0.1601,1.1198532 0,0.4407339 0.0534,0.8245096 0.1601,1.1515094 0.11374,0.3269998 0.26623,0.6005321 0.45818,0.8209047 0.19193,0.2203727 0.40869,0.3840837 0.65038,0.4907108 0.2488,0.1066614 0.512,0.1596727 0.78924,0.1596727 0.1706,0 0.33059,-0.024869 0.47987,-0.074606 0.14928,-0.042665 0.28769,-0.113506 0.41565,-0.2130376 0.12796,-0.099475 0.23489,-0.2238634 0.3202,-0.3731437 V 7.129207 c 0.007,0.049851 0.0174,0.099475 0.0316,0.1492575 0.0143,0.049737 0.0396,0.11362 0.0751,0.1917737 h 1.1832 c -0.0497,-0.1137341 -0.0817,-0.2239889 -0.0959,-0.330616 -0.0143,-0.1066614 -0.0212,-0.2168706 -0.0212,-0.3306161 -0.0203,-2.0615534 -0.0275,-5.88563187 -0.0282,-6.26261995 0.10449,0.12518738 0.21652,0.23829407 0.33842,0.33451746 0.14217,0.0994746 0.29511,0.17410329 0.45861,0.22388619 0.16349,0.049737 0.33383,0.074606 0.51155,0.074606 0.27723,0 0.53668,-0.053502 0.77838,-0.1601062 0.2488,-0.11373409 0.4693,-0.28076467 0.66123,-0.50112593 0.19193,-0.22037268 0.34113,-0.49764663 0.44775,-0.83175341 0.11373,-0.34121374 0.17052,-0.73952266 0.17052,-1.19447056 0,-0.4194131 -0.0496,-0.78537 -0.14926,-1.0981445 -0.0924,-0.3127859 -0.22709,-0.5722411 -0.40481,-0.7783885 -0.1706,-0.2132543 -0.38032,-0.3732349 -0.62912,-0.4798735 -0.24168,-0.1066614 -0.51566,-0.1596612 -0.82132,-0.1596612 -0.12796,0 -0.25605,0.014031 -0.384,0.042436 -0.12084,0.028519 -0.23812,0.074492 -0.35187,0.1384088 -0.11373,0.05681 -0.2165,0.1281647 -0.30893,0.213471 -0.0924,0.085329 -0.17782,0.1777196 -0.25598,0.2772512 -0.0145,-0.7563946 0,-2.7512362 0,-2.7512362 z m -3.05019,2.0795775 c -0.327,0 -0.63287,0.060118 -0.91722,0.180925 -0.28434,0.1137342 -0.53301,0.284495 -0.74627,0.5119861 -0.20615,0.2274682 -0.36944,0.5047421 -0.49029,0.831742 -0.12082,0.3269998 -0.18136,0.6966984 -0.18136,1.1090045 0,0.40518777 0.0605,0.76784786 0.18136,1.08772932 0.12085,0.31989288 0.29118,0.58968342 0.51155,0.81005609 0.22748,0.21326572 0.49064,0.37697668 0.78921,0.4907222 0.30568,0.11373409 0.636,0.17050989 0.99143,0.17050989 0.24169,0 0.47297,-0.028633 0.69333,-0.085443 0.2275,-0.049737 0.43721,-0.13471272 0.62915,-0.25555378 0.19903,-0.12795944 0.37684,-0.28463188 0.53322,-0.46945837 l -0.6187,-0.59701852 c -0.11374,0.11373411 -0.23434,0.20613594 -0.3623,0.27725113 -0.12084,0.07106956 -0.25265,0.12079544 -0.39483,0.14925749 -0.13507,0.028405 -0.27721,0.0424364 -0.4265,0.0424364 -0.17061,0 -0.33389,-0.0248686 -0.49027,-0.0746059 -0.15641,-0.05681002 -0.29855,-0.13851149 -0.42652,-0.24515005 -0.12796,-0.10666138 -0.23119,-0.24173918 -0.30934,-0.40524479 -0.0781,-0.17060117 -0.12423,-0.3732806 -0.13842,-0.60786721 h 3.28403 c 0.008,-0.07107 0.0114,-0.1560336 0.0114,-0.2555538 0.008,-0.099475 0.0103,-0.1848721 0.0103,-0.2559873 0,-0.3980922 -0.0567,-0.7466525 -0.17051,-1.0452131 -0.11373,-0.305679 -0.26998,-0.5580843 -0.46902,-0.7571247 -0.19192,-0.2061473 -0.41616,-0.358656 -0.67208,-0.4581648 -0.25591,-0.099474 -0.52944,-0.1492574 -0.8209,-0.1492574 z m -7.48441,0.1171564 v 2.91089734 c 0,0.30566756 0.0282,0.57919981 0.0851,0.82090475 0.0568,0.23457518 0.1352,0.43724321 0.23471,0.60785578 0.10666,0.17060117 0.23097,0.3127631 0.37315,0.42649721 0.14218,0.10666138 0.30215,0.18494052 0.47987,0.23473492 0.17771,0.05681 0.3663,0.085443 0.56534,0.085443 0.13507,0 0.26644,-0.01791 0.3944,-0.053388 0.13506,-0.035478 0.25941,-0.085215 0.37314,-0.14924605 0.12085,-0.0639968 0.23108,-0.14232165 0.3306,-0.23472348 0.0995,-0.0995887 0.18824,-0.20977498 0.26642,-0.33062746 v 0.21347106 c 0.007,0.0710696 0.0179,0.14192237 0.0321,0.21303756 0.0143,0.0710696 0.0391,0.14235587 0.0747,0.21347107 h 1.09814 c -0.0497,-0.12085249 -0.0817,-0.24187608 -0.0959,-0.36271714 -0.008,-0.12795943 -0.0114,-0.27012137 -0.0114,-0.42650862 V -3.9070059 h -1.20487 v 2.8258535 c 0,0.22036127 -0.025,0.41224908 -0.0747,0.5757547 -0.0497,0.15638725 -0.12106,0.28776897 -0.21347,0.39439613 -0.0853,0.10666138 -0.19182,0.18830581 -0.31978,0.24513864 -0.12084,0.0497373 -0.25596,0.0746059 -0.40524,0.0746059 -0.10666,0 -0.20984,-0.0212182 -0.30936,-0.0637687 -0.0924,-0.0426646 -0.17402,-0.11019775 -0.24513,-0.2026224 -0.0712,-0.09947457 -0.12458,-0.22386341 -0.16011,-0.37314371 -0.0356,-0.15638725 -0.0534,-0.34497826 -0.0534,-0.56533952 V -3.9070288 Z m 15.71772,0 v 0.948887 h 1.15194 V 0.10208162 H 306.5227 V 1.0514135 h 3.54003 V 0.10208162 h -1.10899 V -3.9069602 Z m -2.94387,0.7892143 c 0.17061,0 0.3198,0.039014 0.44776,0.1171564 0.13506,0.078142 0.24905,0.1917395 0.34146,0.3410198 0.0924,0.1421734 0.16326,0.3199842 0.21304,0.5332499 0.0497,0.2132543 0.0747,0.454868 0.0747,0.7250122 0,0.2985606 -0.0282,0.55469616 -0.0851,0.76796187 -0.0568,0.20614736 -0.1352,0.37317794 -0.23474,0.50113737 -0.0995,0.12795943 -0.21681,0.22368088 -0.35188,0.2876549 -0.13505,0.05681 -0.27721,0.0854432 -0.42649,0.0854432 -0.17062,0 -0.31983,-0.0355918 -0.44779,-0.10677545 -0.12083,-0.07814229 -0.22404,-0.18845411 -0.30935,-0.33061605 -0.0781,-0.1492803 -0.1387,-0.3266576 -0.18135,-0.53280495 -0.0356,-0.21325431 -0.0534,-0.45531289 -0.0534,-0.72544569 0.007,-0.3483321 0.0497,-0.6467216 0.12798,-0.8955221 0.0781,-0.2488119 0.19218,-0.4373915 0.34146,-0.5653509 0.15639,-0.1351006 0.33751,-0.2021889 0.54366,-0.2021889 z m -5.3428,0.031713 c 0.16349,0 0.30565,0.024869 0.42651,0.074606 0.12796,0.042664 0.23446,0.1101977 0.31976,0.2026224 0.0853,0.092402 0.14956,0.2063983 0.19221,0.3414647 0.0497,0.1350549 0.0747,0.2875636 0.0747,0.4581762 h -2.11126 c 0.0212,-0.1848265 0.0641,-0.3448072 0.128,-0.4798736 0.064,-0.1350663 0.1456,-0.2486179 0.24514,-0.3410198 0.0995,-0.092402 0.20975,-0.1562617 0.3306,-0.1917737 0.12797,-0.042665 0.25934,-0.064225 0.39441,-0.064225 z m -8.11659,5.4807636 c -0.36965,0 -0.71074,0.070841 -1.02353,0.2130375 -0.30567,0.1350664 -0.57589,0.3236574 -0.81049,0.5653396 -0.22746,0.2345865 -0.40528,0.5118605 -0.53323,0.8317534 -0.12795,0.3198928 -0.19177,0.6609811 -0.19177,1.0235271 0,0.3767599 0.0639,0.7215785 0.19177,1.0343644 0.12795,0.3127859 0.30577,0.58301 0.53323,0.8104896 0.2346,0.227491 0.50482,0.405279 0.81049,0.5332384 0.31279,0.1279481 0.65015,0.1917738 1.01269,0.1917738 0.35544,0 0.7073,-0.063769 1.05562,-0.1917738 0.30511,-0.1183085 0.5756,-0.3005797 0.81528,-0.5388852 L 291.3291,6.1534322 c -0.0797,0.078941 -0.16241,0.150672 -0.25034,0.2078357 -0.13506,0.085329 -0.27347,0.1495427 -0.41566,0.1921958 -0.14217,0.042664 -0.28805,0.063769 -0.43734,0.063769 -0.18484,0 -0.36221,-0.035592 -0.53281,-0.1067755 -0.1635,-0.078142 -0.3094,-0.1847124 -0.43736,-0.3197788 -0.12085,-0.1421619 -0.22032,-0.3091925 -0.2985,-0.5011259 -0.0712,-0.1990404 -0.10678,-0.4195386 -0.10678,-0.6612321 0,-0.2701328 0.0357,-0.5080162 0.10678,-0.7141636 0.0711,-0.2061587 0.17056,-0.3769196 0.2985,-0.5119746 0.12796,-0.1421733 0.27011,-0.2486864 0.4265,-0.3197788 0.16351,-0.078142 0.33427,-0.1175784 0.51199,-0.1175784 0.21326,0 0.40141,0.024869 0.56491,0.074606 0.1635,0.042664 0.3127,0.1317696 0.44775,0.2668359 0.0727,0.079055 0.11483,0.1479342 0.13236,0.2086913 L 292.06237,3.19168 C 291.8796,2.9704171 291.6533,2.7884311 291.3777,2.6506383 291.03649,2.4800143 290.63819,2.394651 290.18323,2.394651 Z m 4.69848,0 c -0.44075,0 -0.84234,0.1135059 -1.20488,0.3410312 -0.35542,0.2274682 -0.63645,0.5366607 -0.84259,0.9276346 -0.20615,0.3909738 -0.30893,0.8319701 -0.30893,1.3224642 0,0.5118263 0.10278,0.9631693 0.30893,1.3541317 0.20614,0.3909739 0.48717,0.6968582 0.84259,0.9172309 0.36254,0.2132543 0.76413,0.3197673 1.20488,0.3197673 0.44784,0 0.84945,-0.1065473 1.20489,-0.3197673 0.36253,-0.2203727 0.64686,-0.526257 0.85301,-0.9172309 0.21326,-0.3909624 0.31977,-0.8423054 0.31977,-1.3541317 0,-0.4904941 -0.10654,-0.9314904 -0.31977,-1.3224642 -0.20615,-0.3909739 -0.49048,-0.7001664 -0.85301,-0.9276346 -0.35544,-0.2274911 -0.75705,-0.3410312 -1.20489,-0.3410312 z m 10.98887,0 c -0.32698,0 -0.63288,0.060574 -0.91721,0.1813585 -0.28436,0.1137341 -0.53301,0.2840729 -0.74628,0.5115526 -0.20615,0.2274682 -0.36987,0.5047421 -0.49071,0.8317534 -0.12085,0.3269998 -0.18137,0.696687 -0.18137,1.1089931 0,0.4051878 0.0605,0.7678364 0.18137,1.0877293 0.12084,0.3198929 0.2916,0.5901169 0.51197,0.8104896 0.22748,0.2132543 0.49023,0.3765432 0.7888,0.4902773 0.30566,0.1137341 0.63642,0.1705213 0.99184,0.1705213 0.24171,0 0.47254,-0.028177 0.6929,-0.085101 0.22749,-0.049737 0.4372,-0.1351463 0.62913,-0.2559873 0.19904,-0.1279595 0.37684,-0.2842098 0.53323,-0.4690249 l -0.61827,-0.597452 c -0.11373,0.1137341 -0.23476,0.2061587 -0.36272,0.2772397 -0.12084,0.07107 -0.25222,0.1208297 -0.39439,0.1492689 -0.13507,0.028519 -0.27722,0.043007 -0.42651,0.043007 -0.17059,0 -0.33433,-0.024869 -0.49071,-0.074606 -0.1564,-0.05681 -0.29856,-0.1389449 -0.42651,-0.2455721 -0.12796,-0.1066614 -0.23073,-0.2413171 -0.30892,-0.4048113 -0.0781,-0.1706126 -0.12462,-0.373292 -0.13884,-0.6078672 h 3.28446 c 0.007,-0.071069 0.0114,-0.1564671 0.0114,-0.2559873 0.007,-0.099589 0.0114,-0.1849063 0.0114,-0.2559873 0,-0.3980922 -0.0573,-0.746219 -0.17097,-1.044791 C 307.71994,3.454078 307.5637,3.2016613 307.36466,3.0026209 307.17273,2.7964735 306.94892,2.6435314 306.69301,2.5440112 306.4371,2.4445362 306.16358,2.3947537 305.8721,2.3947537 Z m -5.50244,0.9276345 c 0.23458,0 0.42646,0.060575 0.57574,0.18137 0.14929,0.1208411 0.25953,0.3056904 0.33063,0.5544909 0.0712,0.2416935 0.10677,0.5471329 0.10677,0.9167859 0,0.2701328 -0.0211,0.5117693 -0.0639,0.7250236 -0.0356,0.2061473 -0.0961,0.3769082 -0.18137,0.5119746 -0.0781,0.1350664 -0.18141,0.2382712 -0.30935,0.3093522 -0.12084,0.063997 -0.26301,0.095938 -0.42651,0.095938 -0.19904,0 -0.38015,-0.067533 -0.54366,-0.2026224 -0.16349,-0.1350778 -0.29529,-0.3269542 -0.39483,-0.5757661 -0.0925,-0.2488005 -0.1384,-0.5472014 -0.1384,-0.8955221 0,-0.2488005 0.0212,-0.4730403 0.0639,-0.6720807 0.0497,-0.1990404 0.11731,-0.3693792 0.20263,-0.5115411 0.0853,-0.1421734 0.19555,-0.24912 0.33061,-0.3202009 0.13507,-0.078142 0.28426,-0.1171564 0.44777,-0.1171564 z m 5.44908,0.011408 c 0.16349,0 0.30566,0.024869 0.4265,0.074606 0.12797,0.042665 0.23447,0.1101977 0.31976,0.2026224 0.0853,0.092402 0.14914,0.2059534 0.19179,0.3410198 0.0497,0.1350664 0.0747,0.2880085 0.0747,0.4586097 h -2.11127 c 0.0212,-0.1848265 0.0641,-0.3448071 0.12801,-0.4798621 0.064,-0.1350778 0.1456,-0.2490515 0.24512,-0.3414647 0.0995,-0.092402 0.20978,-0.1562276 0.33062,-0.1917738 0.12796,-0.042665 0.25977,-0.063769 0.39483,-0.063769 z m -10.93551,0.031599 c 0.23458,0 0.43727,0.067533 0.60787,0.2026224 0.17061,0.1279594 0.30571,0.3127973 0.40523,0.5544909 0.10667,0.2417049 0.15968,0.5297477 0.15968,0.8638545 0,0.3198928 -0.053,0.6042167 -0.15968,0.8530172 -0.0995,0.2416936 -0.23462,0.4335814 -0.40523,0.5757547 -0.1706,0.1350664 -0.37329,0.202611 -0.60787,0.202611 -0.22038,0 -0.4193,-0.067647 -0.59701,-0.202611 -0.17062,-0.1421733 -0.30573,-0.3340611 -0.40525,-0.5757547 -0.0995,-0.2488005 -0.14926,-0.5331244 -0.14926,-0.8530172 0,-0.3341068 0.0496,-0.6221496 0.14926,-0.8638545 0.10666,-0.2416936 0.24505,-0.4265315 0.41566,-0.5544909 0.17771,-0.1350664 0.37332,-0.2026224 0.5866,-0.2026224 z"
         sodipodi:nodetypes="ssscscscscccssccssccsccsccscccccccccssccscscscsccsccscccsscscscccsccscccscccssccsccccccscsccccscccscsccccscccccscccsccscccscccscccccccccccccsccsscscsccccccsscscccsscssccsssccsccccsscccscccsccccssscssscsccsccssccsssccsccccccscsccccsccsssccscccsccscscsscsccccscssccsccsccsccs" /><path
         id="rect71"
         style="fill:url(#linearGradient2);fill-opacity:1;stroke:none;stroke-width:22.5951;stroke-linejoin:bevel;stroke-dasharray:none;stroke-opacity:1"
         d="m 194.679,199.69367 v -1.64653 l 4.37211,-3.6e-4 v -4.37174 h 1.64652 l -3.6e-4,4.3721 3.6e-4,1.64616 h -1.64652 z"
         transform="matrix(0.70710678,0.70710678,0.70710678,-0.70710678,0,0)" /><text
         xml:space="preserve"
         style="font-style:normal;font-variant:normal;font-weight:600;font-stretch:normal;font-size:3.39557px;font-family:Inconsolata;-inkscape-font-specification:'Inconsolata Semi-Bold';letter-spacing:0px;fill:#149bd9;fill-opacity:1;stroke:none;stroke-width:12.7334;stroke-linejoin:bevel;stroke-dasharray:none;stroke-opacity:1"
         x="277.71185"
         y="15.172657"
         id="text73"><tspan
           sodipodi:role="line"
           id="tspan73"
           style="font-style:normal;font-variant:normal;font-weight:600;font-stretch:normal;font-size:3.39557px;font-family:Inconsolata;-inkscape-font-specification:'Inconsolata Semi-Bold';fill:#149bd9;fill-opacity:1;stroke-width:12.7334"
           x="277.71185"
           y="15.172657"
           dx="0 -0.12 -0.079999998 -0.31999996 0 0 0 0.51999986 0 -0.059999999 -0.090000004 -0.029999984 0 -0.090000004 0.18000001 0.28 0 0 0 -0.19000001 0 -0.039999999 0.039999999 0 0 0 -0.12 -0.039999992">infosec programming thoughts</tspan></text></g></g></svg>
